<?xml version="1.0" standalone="no"?>
<svg xmlns:xlink="http://www.w3.org/1999/xlink" id="wave" style="transform:rotate(180deg); transition: 0.3s" viewBox="0 0 1440 100" version="1.1" xmlns="http://www.w3.org/2000/svg"><defs><linearGradient id="sw-gradient-0" x1="0" x2="0" y1="1" y2="0"><stop stop-color="rgba(0, 148, 132, 1)" offset="0%"/><stop stop-color="rgba(0, 148, 132, 1)" offset="100%"/></linearGradient></defs><path style="transform:translate(0, 0px); opacity:1" fill="url(#sw-gradient-0)" d="M0,80L21.8,75C43.6,70,87,60,131,53.3C174.5,47,218,43,262,35C305.5,27,349,13,393,11.7C436.4,10,480,20,524,30C567.3,40,611,50,655,55C698.2,60,742,60,785,56.7C829.1,53,873,47,916,36.7C960,27,1004,13,1047,10C1090.9,7,1135,13,1178,25C1221.8,37,1265,53,1309,63.3C1352.7,73,1396,77,1440,76.7C1483.6,77,1527,73,1571,60C1614.5,47,1658,23,1702,13.3C1745.5,3,1789,7,1833,10C1876.4,13,1920,17,1964,26.7C2007.3,37,2051,53,2095,58.3C2138.2,63,2182,57,2225,53.3C2269.1,50,2313,50,2356,51.7C2400,53,2444,57,2487,48.3C2530.9,40,2575,20,2618,16.7C2661.8,13,2705,27,2749,40C2792.7,53,2836,67,2880,63.3C2923.6,60,2967,40,3011,31.7C3054.5,23,3098,27,3120,28.3L3141.8,30L3141.8,100L3120,100C3098.2,100,3055,100,3011,100C2967.3,100,2924,100,2880,100C2836.4,100,2793,100,2749,100C2705.5,100,2662,100,2618,100C2574.5,100,2531,100,2487,100C2443.6,100,2400,100,2356,100C2312.7,100,2269,100,2225,100C2181.8,100,2138,100,2095,100C2050.9,100,2007,100,1964,100C1920,100,1876,100,1833,100C1789.1,100,1745,100,1702,100C1658.2,100,1615,100,1571,100C1527.3,100,1484,100,1440,100C1396.4,100,1353,100,1309,100C1265.5,100,1222,100,1178,100C1134.5,100,1091,100,1047,100C1003.6,100,960,100,916,100C872.7,100,829,100,785,100C741.8,100,698,100,655,100C610.9,100,567,100,524,100C480,100,436,100,393,100C349.1,100,305,100,262,100C218.2,100,175,100,131,100C87.3,100,44,100,22,100L0,100Z"/></svg>