<?xml version="1.0" standalone="no"?>
<svg xmlns:xlink="http://www.w3.org/1999/xlink" id="wave" style="transform:rotate(0deg); transition: 0.3s" viewBox="0 0 1440 100" version="1.1" xmlns="http://www.w3.org/2000/svg"><defs><linearGradient id="sw-gradient-0" x1="0" x2="0" y1="1" y2="0"><stop stop-color="rgba(0, 148, 132, 1)" offset="0%"/><stop stop-color="rgba(0, 148, 132, 1)" offset="100%"/></linearGradient></defs><path style="transform:translate(0, 0px); opacity:1" fill="url(#sw-gradient-0)" d="M0,20L21.8,23.3C43.6,27,87,33,131,30C174.5,27,218,13,262,15C305.5,17,349,33,393,48.3C436.4,63,480,77,524,71.7C567.3,67,611,43,655,28.3C698.2,13,742,7,785,18.3C829.1,30,873,60,916,61.7C960,63,1004,37,1047,25C1090.9,13,1135,17,1178,21.7C1221.8,27,1265,33,1309,33.3C1352.7,33,1396,27,1440,28.3C1483.6,30,1527,40,1571,41.7C1614.5,43,1658,37,1702,41.7C1745.5,47,1789,63,1833,65C1876.4,67,1920,53,1964,50C2007.3,47,2051,53,2095,56.7C2138.2,60,2182,60,2225,60C2269.1,60,2313,60,2356,60C2400,60,2444,60,2487,61.7C2530.9,63,2575,67,2618,60C2661.8,53,2705,37,2749,35C2792.7,33,2836,47,2880,51.7C2923.6,57,2967,53,3011,48.3C3054.5,43,3098,37,3120,33.3L3141.8,30L3141.8,100L3120,100C3098.2,100,3055,100,3011,100C2967.3,100,2924,100,2880,100C2836.4,100,2793,100,2749,100C2705.5,100,2662,100,2618,100C2574.5,100,2531,100,2487,100C2443.6,100,2400,100,2356,100C2312.7,100,2269,100,2225,100C2181.8,100,2138,100,2095,100C2050.9,100,2007,100,1964,100C1920,100,1876,100,1833,100C1789.1,100,1745,100,1702,100C1658.2,100,1615,100,1571,100C1527.3,100,1484,100,1440,100C1396.4,100,1353,100,1309,100C1265.5,100,1222,100,1178,100C1134.5,100,1091,100,1047,100C1003.6,100,960,100,916,100C872.7,100,829,100,785,100C741.8,100,698,100,655,100C610.9,100,567,100,524,100C480,100,436,100,393,100C349.1,100,305,100,262,100C218.2,100,175,100,131,100C87.3,100,44,100,22,100L0,100Z"/></svg>